<?xml version="1.0" encoding="iso-8859-1"?>
<!-- Uploaded to: SVG Repo, www.svgrepo.com, Generator: SVG Repo Mixer Tools -->
<!DOCTYPE svg PUBLIC "-//W3C//DTD SVG 1.1//EN" "http://www.w3.org/Graphics/SVG/1.1/DTD/svg11.dtd">
<svg fill="#000000" height="800px" width="800px" version="1.1" id="Capa_1" xmlns="http://www.w3.org/2000/svg" xmlns:xlink="http://www.w3.org/1999/xlink" 
	 viewBox="0 0 239.24 239.24" xml:space="preserve">
<g>
	<path d="M228.965,126.963l-4.429-0.032c-4.024-0.028-9.104-3.01-11.092-6.511l-21.43-37.733c-2.639-4.647-8.893-8.288-14.237-8.288
		H83.215c-5.307,0-11.717,3.492-14.595,7.951l-25.167,39.001c-2.275,3.525-7.648,7.303-11.734,8.249L9.66,134.713
		C4.334,135.948,0,141.401,0,146.87v38.446c0,5.674,4.616,10.29,10.29,10.29h16.437c3.487,11.968,14.547,20.74,27.624,20.74
		c13.077,0,24.138-8.772,27.624-20.74h62.134c3.486,11.968,14.547,20.74,27.624,20.74c13.077,0,24.137-8.772,27.623-20.74h29.595
		c5.674,0,10.29-4.616,10.29-10.29v-48.002C239.24,131.647,234.631,127.003,228.965,126.963z M54.351,201.865
		c-7.894,0-14.292-6.4-14.292-14.293c0-7.895,6.398-14.294,14.292-14.294c7.895,0,14.293,6.399,14.293,14.294
		C68.644,195.464,62.245,201.865,54.351,201.865z M123.673,129.613H63.8c-3.76,0-5.233-2.625-3.273-5.834l18.235-29.867
		c1.96-3.209,6.639-5.834,10.398-5.834h34.513V129.613z M171.732,201.865c-7.893,0-14.294-6.4-14.294-14.293
		c0-7.895,6.4-14.294,14.294-14.294c7.893,0,14.292,6.399,14.292,14.294C186.024,195.464,179.625,201.865,171.732,201.865z
		 M192.575,129.613H140.12V88.078h30.073c3.76,0,8.295,2.708,10.078,6.018l15.897,29.5
		C197.952,126.905,196.335,129.613,192.575,129.613z"/>
	<path d="M132.186,47.066h1.453c0.114,0,0.203-0.034,0.251-0.096c0.047-0.062,0.058-0.156,0.029-0.266l-0.971-3.767l-1.031,3.777
		c-0.029,0.107-0.021,0.199,0.025,0.259C131.987,47.034,132.074,47.066,132.186,47.066z"/>
	<path d="M82.795,56.974l21.453,9.734c1.872,0.85,4.95,1.516,7.008,1.516h61.318c2.767,0,5.018-2.251,5.018-5.018V27.912
		c0-2.767-2.251-5.017-5.018-5.017h-61.318c-2.058,0-5.136,0.666-7.008,1.516l-21.453,9.734c-2.25,1.021-4.012,3.755-4.012,6.225
		v10.381C78.783,53.219,80.545,55.954,82.795,56.974z M156.102,37.156c0-0.871,0.708-1.58,1.579-1.58h10.579
		c0.871,0,1.579,0.709,1.579,1.58v1.351c0,0.871-0.708,1.58-1.579,1.58h-6.536c-0.29,0-0.526,0.236-0.526,0.526v1.758
		c0,0.29,0.236,0.526,0.526,0.526h4.197c0.871,0,1.58,0.708,1.58,1.579v1.352c0,0.87-0.708,1.581-1.578,1.584l-4.197,0.018
		c-0.291,0.001-0.528,0.239-0.528,0.53v2.545c0,0.291,0.236,0.527,0.526,0.527h6.841c0.871,0,1.579,0.708,1.579,1.579v1.351
		c0,0.871-0.708,1.579-1.579,1.579h-10.884c-0.871,0-1.579-0.708-1.579-1.579V37.156z M141.815,37.156c0-0.871,0.709-1.58,1.58-1.58
		h1.935c0.871,0,1.58,0.709,1.58,1.58v13.349c0,0.291,0.236,0.527,0.526,0.527h5.876c0.871,0,1.579,0.708,1.579,1.579v1.351
		c0,0.871-0.708,1.579-1.579,1.579h-9.917c-0.871,0-1.58-0.708-1.58-1.579V37.156z M124.845,53.858l4.881-16.89
		c0.225-0.78,1.038-1.393,1.851-1.393h2.673c0.812,0,1.625,0.613,1.848,1.396l4.811,16.887c0.121,0.426,0.052,0.854-0.191,1.177
		c-0.243,0.322-0.637,0.507-1.079,0.507h-1.986c-0.819,0-1.62-0.622-1.823-1.416l-0.495-1.925c-0.083-0.328-0.467-0.625-0.805-0.625
		h-3.258c-0.341,0-0.734,0.3-0.825,0.63l-0.533,1.935c-0.218,0.786-1.026,1.401-1.841,1.401h-1.96c-0.442,0-0.836-0.185-1.078-0.507
		C124.791,54.712,124.722,54.284,124.845,53.858z M110.063,50.466c0.143-0.396,0.437-0.708,0.828-0.88l1.301-0.566
		c0.229-0.121,0.495-0.189,0.76-0.189c0.627,0,1.188,0.371,1.667,1.104c0.209,0.321,0.447,0.594,0.71,0.812
		c0.257,0.215,0.559,0.385,0.896,0.507c0.585,0.212,1.392,0.241,2.12,0.093c0.277-0.055,0.522-0.147,0.73-0.275
		c0.184-0.113,0.327-0.266,0.437-0.466c0.108-0.197,0.163-0.467,0.163-0.801c0-0.282-0.075-0.707-0.729-1.137
		c-0.675-0.449-1.502-0.859-2.463-1.218c-2.015-0.764-3.544-1.571-4.548-2.399c-1.141-0.971-1.716-2.312-1.716-3.99
		c0-1.665,0.662-3.059,1.969-4.143c1.28-1.059,2.89-1.596,4.785-1.596c1.582,0,3.026,0.394,4.292,1.172
		c0.638,0.382,1.214,0.884,1.708,1.488c0.489,0.597,0.823,1.262,0.837,1.29c0.193,0.385,0.212,0.821,0.051,1.198
		c-0.161,0.376-0.489,0.665-0.902,0.791l-1.705,0.522c-0.197,0.044-0.349,0.061-0.494,0.061c-0.981,0-1.487-0.729-1.703-1.039
		c-0.168-0.24-0.331-0.433-0.504-0.598c-0.367-0.355-0.892-0.527-1.604-0.527c-0.234,0-0.476,0.026-0.718,0.077
		c-0.228,0.048-0.435,0.124-0.614,0.224c-0.153,0.086-0.273,0.201-0.369,0.354c-0.092,0.145-0.136,0.323-0.136,0.548
		c0,0.148,0.049,0.292,0.149,0.441c0.079,0.116,0.256,0.301,0.649,0.522c0.781,0.44,1.676,0.837,2.66,1.182
		c1.484,0.507,2.836,1.228,4.013,2.141c1.331,0.993,2.009,2.452,2.009,4.33c0,2-0.66,3.58-1.963,4.695
		c-1.283,1.064-3.072,1.601-5.325,1.601c-1.457,0-2.895-0.39-4.272-1.159c-0.74-0.397-1.397-0.921-1.945-1.55
		c-0.545-0.629-0.93-1.388-0.945-1.419C109.949,51.289,109.922,50.862,110.063,50.466z M91.439,39.06
		c3.583,0,6.498,2.915,6.498,6.498c0,3.584-2.915,6.5-6.498,6.5s-6.498-2.916-6.498-6.5C84.941,41.975,87.856,39.06,91.439,39.06z"
		/>
</g>
</svg>