<?xml version="1.0" standalone="no"?>
<!DOCTYPE svg PUBLIC "-//W3C//DTD SVG 20010904//EN"
 "http://www.w3.org/TR/2001/REC-SVG-20010904/DTD/svg10.dtd">
<svg version="1.0" xmlns="http://www.w3.org/2000/svg"
 width="621.000000pt" height="335.000000pt" viewBox="0 0 621.000000 335.000000"
 preserveAspectRatio="xMidYMid meet">

<g transform="translate(0.000000,335.000000) scale(0.100000,-0.100000)"
fill="#000000" stroke="none">
<path d="M3420 2795 l0 -165 -379 0 -380 0 -138 146 c-76 80 -150 152 -165
160 -34 18 -72 18 -106 0 -15 -8 -275 -264 -579 -568 -600 -602 -583 -581
-548 -659 27 -58 89 -82 152 -59 15 6 253 236 528 510 l500 499 272 -282 c150
-155 371 -383 491 -507 l219 -225 762 -3 c837 -3 803 -5 836 58 18 34 20 83 4
111 -21 41 -671 775 -702 794 -29 18 -53 20 -239 23 l-208 3 0 165 0 164 -160
0 -160 0 0 -165z m406 -253 c25 -16 34 -48 19 -69 -8 -11 -15 -44 -17 -74 -3
-46 -6 -54 -23 -54 -17 0 -20 8 -23 49 -2 27 -10 59 -18 70 -19 28 -18 42 6
66 21 21 38 25 56 12z m315 -261 l29 -29 0 -171 0 -171 -375 0 -375 0 0 169 0
169 31 31 31 31 315 0 315 0 29 -29z m-95 -406 c4 -8 1 -22 -6 -30 -10 -12
-51 -15 -240 -15 -126 0 -235 3 -244 6 -16 6 -22 35 -9 47 3 4 116 7 250 7
208 0 244 -2 249 -15z m-76 -70 c10 -12 10 -18 0 -30 -10 -12 -43 -15 -175
-15 -132 0 -165 3 -175 15 -10 12 -10 18 0 30 10 12 43 15 175 15 132 0 165
-3 175 -15z"/>
<path d="M3950 2198 c-30 -11 -40 -25 -40 -59 0 -52 69 -79 103 -41 18 19 22
59 9 78 -14 22 -46 32 -72 22z"/>
<path d="M3580 2181 c-26 -50 -1 -101 49 -101 54 0 82 68 43 103 -26 24 -79
22 -92 -2z"/>
<path d="M1970 1930 l0 -130 130 0 130 0 0 130 0 130 -130 0 -130 0 0 -130z"/>
<path d="M2370 1930 l0 -130 130 0 130 0 0 130 0 130 -130 0 -130 0 0 -130z"/>
<path d="M1970 1555 l0 -135 130 0 130 0 0 135 0 135 -130 0 -130 0 0 -135z"/>
<path d="M2370 1550 l0 -130 130 0 130 0 0 130 0 130 -130 0 -130 0 0 -130z"/>
<path d="M4859 1392 c-15 -2 -34 -11 -42 -20 -8 -9 -121 -197 -252 -417 -131
-220 -245 -410 -253 -423 -14 -22 -14 -22 44 -22 l59 0 65 115 65 115 170 -2
170 -3 17 -110 c9 -60 17 -111 17 -112 1 -2 28 -3 61 -3 37 0 60 4 60 11 0 6
-6 37 -14 68 -8 31 -40 223 -71 426 -31 204 -59 372 -63 375 -4 3 -19 4 -33 2z
m-18 -372 c11 -74 22 -145 24 -157 5 -23 5 -23 -125 -23 -71 0 -130 3 -130 6
0 3 38 69 84 147 46 78 92 158 102 177 18 34 19 34 21 10 2 -14 12 -86 24
-160z"/>
<path d="M4217 1312 c-4 -38 -41 -228 -82 -423 -41 -195 -75 -360 -75 -366 0
-9 19 -13 60 -13 l60 0 0 35 c0 29 148 755 166 818 5 15 -2 17 -59 17 l-64 0
-6 -68z"/>
<path d="M3116 1236 c-88 -33 -136 -92 -136 -168 0 -105 53 -152 240 -213 108
-36 140 -65 140 -130 0 -35 -6 -52 -24 -70 -46 -46 -157 -56 -227 -19 -36 18
-69 61 -69 90 0 22 -4 24 -44 24 l-44 0 8 -34 c24 -107 121 -170 260 -169 152
1 252 103 220 222 -21 78 -88 130 -215 166 -117 34 -165 71 -165 127 0 61 36
101 104 113 91 18 179 -24 192 -91 6 -32 9 -34 45 -34 35 0 39 3 39 25 0 52
-51 115 -120 150 -47 24 -154 29 -204 11z"/>
<path d="M1162 899 l3 -344 38 -3 37 -3 0 141 0 141 88 -3 87 -3 60 -111 c88
-161 90 -164 130 -164 18 0 36 3 38 8 3 4 -31 70 -74 147 -69 123 -77 141 -62
150 77 47 113 105 113 180 0 82 -35 141 -105 178 -35 18 -61 22 -198 25 l-157
4 2 -343z m297 258 c99 -35 106 -188 11 -239 -27 -14 -57 -18 -132 -18 l-98 0
0 135 0 135 93 -1 c50 0 107 -5 126 -12z"/>
<path d="M1760 894 l0 -345 38 3 37 3 3 158 3 157 175 -2 176 -3 1 -155 2
-155 40 0 40 0 3 343 2 342 -45 0 -46 0 2 -147 3 -148 -177 -3 -177 -2 0 150
0 150 -40 0 -40 0 0 -346z"/>
<path d="M2450 895 l0 -345 213 2 212 3 3 33 3 32 -175 0 -176 0 0 125 0 125
150 0 150 0 0 35 0 35 -150 0 -150 0 0 115 0 115 170 0 170 0 0 35 0 35 -210
0 -210 0 0 -345z"/>
<path d="M3514 1216 c-3 -14 -3 -30 1 -35 4 -7 50 -11 116 -11 l109 0 0 -311
0 -310 38 3 37 3 3 308 2 307 110 0 110 0 0 35 0 35 -260 0 -260 0 -6 -24z"/>
</g>
</svg>
